<svg xmlns="http://www.w3.org/2000/svg" width="200" height="200" viewBox="0 0 200 200">
  <defs>
    <linearGradient id="bg" x1="0%" y1="0%" x2="100%" y2="100%">
      <stop offset="0%" style="stop-color:#4FC3F7"/>
      <stop offset="100%" style="stop-color:#0277BD"/>
    </linearGradient>
  </defs>
  <rect width="200" height="200" rx="40" fill="url(#bg)"/>
  <!-- Snowflake / freezer icon -->
  <g transform="translate(100,100)" stroke="#fff" stroke-width="5" stroke-linecap="round" fill="none">
    <line x1="0" y1="-45" x2="0" y2="45"/>
    <line x1="-39" y1="-22.5" x2="39" y2="22.5"/>
    <line x1="-39" y1="22.5" x2="39" y2="-22.5"/>
    <!-- Branch details -->
    <line x1="0" y1="-45" x2="-12" y2="-33"/>
    <line x1="0" y1="-45" x2="12" y2="-33"/>
    <line x1="0" y1="45" x2="-12" y2="33"/>
    <line x1="0" y1="45" x2="12" y2="33"/>
    <line x1="-39" y1="-22.5" x2="-27" y2="-34.5"/>
    <line x1="-39" y1="-22.5" x2="-39" y2="-8"/>
    <line x1="39" y1="22.5" x2="27" y2="34.5"/>
    <line x1="39" y1="22.5" x2="39" y2="8"/>
    <line x1="39" y1="-22.5" x2="27" y2="-34.5"/>
    <line x1="39" y1="-22.5" x2="39" y2="-8"/>
    <line x1="-39" y1="22.5" x2="-27" y2="34.5"/>
    <line x1="-39" y1="22.5" x2="-39" y2="8"/>
  </g>
</svg>
